# xmcd
#
# Track frame offsets: 
#        150
#        14882
#        39136
#        53924
#        67378
#        82797
#        93638
#        105732
#        118836
#        130303
#
# Disc length: 1923 seconds
#
# Revision: 0
# Processed by: cddbd v1.5.2PL0 Copyright (c) Steve Scherf et al.
# Submitted via: ExactAudioCopy v0.99pb3
#
DISCID=8b07810a
DTITLE=Various Artist - Selections from House of Blues - Essential Wonen in B
DTITLE=lues
DYEAR=1996
DGENRE=Blues
TTITLE0=Marsha Ball, Angela Strehilt, Lou Ann Barton - A Fool in Love
TTITLE1=Ruth Brown - If I Can't Sell It, I'll Keep Sittin' On It
TTITLE2=Alberta Hunter - I Got Myself a Working Man
TTITLE3=Candye Kane - No! I Ain't Gonna Let You Go
TTITLE4=Bessie Simit - Do Your Duty
TTITLE5=Etta James - Good Rockin' Daddy
TTITLE6=Big Maybelle - Gabbin' Blues
TTITLE7=Dinah Washington - Evil Gal Blues
TTITLE8=Nina Simone - I Want a Little Sugar In My Bowl
TTITLE9=Blu Lu Barker - Don't You Feel My Leg
EXTD=
EXTT0=
EXTT1=
EXTT2=
EXTT3=
EXTT4=
EXTT5=
EXTT6=
EXTT7=
EXTT8=
EXTT9=
PLAYORDER=
